<svg width="1146" height="203" viewBox="0 0 1146 203" fill="none" xmlns="http://www.w3.org/2000/svg">
<path fill-rule="evenodd" clip-rule="evenodd" d="M302.5 183C303.881 183 305 181.881 305 180.5C305 179.119 303.881 178 302.5 178C301.119 178 300 179.119 300 180.5C300 181.881 301.119 183 302.5 183Z" fill="#ED423C"/>
<path fill-rule="evenodd" clip-rule="evenodd" d="M333 196C334.105 196 335 195.105 335 194C335 192.895 334.105 192 333 192C331.895 192 331 192.895 331 194C331 195.105 331.895 196 333 196Z" fill="white"/>
<path fill-rule="evenodd" clip-rule="evenodd" d="M2 31C3.10457 31 4 30.1046 4 29C4 27.8954 3.10457 27 2 27C0.89543 27 0 27.8954 0 29C0 30.1046 0.89543 31 2 31Z" fill="white"/>
<path fill-rule="evenodd" clip-rule="evenodd" d="M315.5 155C317.433 155 319 153.433 319 151.5C319 149.567 317.433 148 315.5 148C313.567 148 312 149.567 312 151.5C312 153.433 313.567 155 315.5 155Z" fill="white"/>
<path fill-rule="evenodd" clip-rule="evenodd" d="M26.5 46C28.9853 46 31 43.9853 31 41.5C31 39.0147 28.9853 37 26.5 37C24.0147 37 22 39.0147 22 41.5C22 43.9853 24.0147 46 26.5 46Z" fill="white"/>
<path fill-rule="evenodd" clip-rule="evenodd" d="M27.5 203C29.9853 203 32 200.985 32 198.5C32 196.015 29.9853 194 27.5 194C25.0147 194 23 196.015 23 198.5C23 200.985 25.0147 203 27.5 203Z" fill="white"/>
<path fill-rule="evenodd" clip-rule="evenodd" d="M168.5 177C170.985 177 173 174.985 173 172.5C173 170.015 170.985 168 168.5 168C166.015 168 164 170.015 164 172.5C164 174.985 166.015 177 168.5 177Z" fill="white"/>
<path fill-rule="evenodd" clip-rule="evenodd" d="M27.5 9C29.9853 9 32 6.98528 32 4.5C32 2.01472 29.9853 0 27.5 0C25.0147 0 23 2.01472 23 4.5C23 6.98528 25.0147 9 27.5 9Z" fill="white"/>
<path fill-rule="evenodd" clip-rule="evenodd" d="M77.5 124C79.9853 124 82 121.985 82 119.5C82 117.015 79.9853 115 77.5 115C75.0147 115 73 117.015 73 119.5C73 121.985 75.0147 124 77.5 124Z" fill="white"/>
<path fill-rule="evenodd" clip-rule="evenodd" d="M1134.5 185C1136.43 185 1138 183.433 1138 181.5C1138 179.567 1136.43 178 1134.5 178C1132.57 178 1131 179.567 1131 181.5C1131 183.433 1132.57 185 1134.5 185Z" fill="white"/>
<path fill-rule="evenodd" clip-rule="evenodd" d="M160 36C162.209 36 164 34.2091 164 32C164 29.7909 162.209 28 160 28C157.791 28 156 29.7909 156 32C156 34.2091 157.791 36 160 36Z" fill="#ED423C"/>
<path fill-rule="evenodd" clip-rule="evenodd" d="M844 161C847.314 161 850 158.314 850 155C850 151.686 847.314 149 844 149C840.686 149 838 151.686 838 155C838 158.314 840.686 161 844 161Z" fill="#ED423C"/>
<path fill-rule="evenodd" clip-rule="evenodd" d="M193 114C197.418 114 201 110.418 201 106C201 101.582 197.418 98 193 98C188.582 98 185 101.582 185 106C185 110.418 188.582 114 193 114Z" fill="white"/>
<path fill-rule="evenodd" clip-rule="evenodd" d="M209.5 71C211.433 71 213 69.433 213 67.5C213 65.567 211.433 64 209.5 64C207.567 64 206 65.567 206 67.5C206 69.433 207.567 71 209.5 71Z" fill="#ED423C"/>
<path fill-rule="evenodd" clip-rule="evenodd" d="M56.5 99C58.433 99 60 97.433 60 95.5C60 93.567 58.433 92 56.5 92C54.567 92 53 93.567 53 95.5C53 97.433 54.567 99 56.5 99Z" fill="#ED423C"/>
<path fill-rule="evenodd" clip-rule="evenodd" d="M822.5 130C823.881 130 825 128.881 825 127.5C825 126.119 823.881 125 822.5 125C821.119 125 820 126.119 820 127.5C820 128.881 821.119 130 822.5 130Z" fill="white"/>
<path fill-rule="evenodd" clip-rule="evenodd" d="M1085.5 68C1087.43 68 1089 66.433 1089 64.5C1089 62.567 1087.43 61 1085.5 61C1083.57 61 1082 62.567 1082 64.5C1082 66.433 1083.57 68 1085.5 68Z" fill="white"/>
<path fill-rule="evenodd" clip-rule="evenodd" d="M1140 94C1143.31 94 1146 91.3137 1146 88C1146 84.6863 1143.31 82 1140 82C1136.69 82 1134 84.6863 1134 88C1134 91.3137 1136.69 94 1140 94Z" fill="white"/>
<path fill-rule="evenodd" clip-rule="evenodd" d="M1117.5 41C1119.43 41 1121 39.433 1121 37.5C1121 35.567 1119.43 34 1117.5 34C1115.57 34 1114 35.567 1114 37.5C1114 39.433 1115.57 41 1117.5 41Z" fill="#ED423C"/>
</svg>
